<svg width="2643" height="2641" viewBox="0 0 2643 2641" fill="none" xmlns="http://www.w3.org/2000/svg">
<g clip-path="url(#clip0_1_18)">
<path d="M2126.29 363.301C1892.31 129.16 1581.19 0.142855 1249.71 0C566.638 0 10.758 555.703 10.4845 1238.74C10.4049 1457.08 67.4532 1670.2 175.886 1858.07L0.0805664 2500L657.007 2327.75C838.002 2426.45 1041.79 2478.47 1249.17 2478.55H1249.7H1249.71C1932.67 2478.55 2488.63 1922.75 2488.92 1239.74C2489.03 908.713 2360.24 597.46 2126.29 363.301V363.301ZM1249.71 2269.32H1249.31C1064.45 2269.23 883.183 2219.6 725.071 2125.78L687.443 2103.47L297.609 2205.68L401.69 1825.73L377.174 1786.78C274.063 1622.83 219.629 1433.37 219.706 1238.82C219.933 671.101 681.959 209.236 1250.1 209.236C1525.22 209.35 1783.8 316.59 1978.28 511.201C2172.74 705.811 2279.76 964.518 2279.68 1239.66C2279.44 1807.39 1817.4 2269.32 1249.71 2269.32V2269.32Z" fill="#E0E0E0"/>
<path d="M56.9675 2428.77L224.743 1816.17C121.236 1636.88 66.8041 1433.47 66.8694 1225.15C67.1409 573.327 597.634 43.0239 1249.44 43.0239C1565.8 43.1668 1862.72 166.284 2085.96 389.736C2309.25 613.186 2432.14 910.2 2432.02 1226.08C2431.74 1877.92 1901.22 2408.27 1249.49 2408.27C1249.44 2408.27 1249.52 2408.27 1249.49 2408.27H1248.96C1051.05 2408.2 856.59 2358.52 683.874 2264.39L56.9675 2428.77V2428.77Z" fill="url(#paint0_linear_1_18)"/>
<path fill-rule="evenodd" clip-rule="evenodd" d="M943.483 712.836C920.556 661.863 896.418 660.842 874.606 659.951C856.765 659.185 836.341 659.232 815.95 659.232C795.542 659.232 762.379 666.902 734.334 697.53C706.273 728.158 627.193 802.2 627.193 952.788C627.193 1103.39 736.885 1248.91 752.175 1269.35C767.481 1289.76 963.923 1608.66 1275.03 1731.35C1533.59 1833.31 1586.2 1813.03 1642.33 1807.93C1698.45 1802.82 1823.41 1733.9 1848.92 1662.42C1874.43 1590.96 1874.43 1529.71 1866.78 1516.9C1859.13 1504.15 1838.72 1496.5 1808.11 1481.19C1777.5 1465.88 1627.02 1391.83 1598.96 1381.62C1570.9 1371.42 1550.49 1366.32 1530.08 1396.96C1509.68 1427.57 1451.05 1496.5 1433.19 1516.9C1415.34 1537.36 1397.48 1539.91 1366.87 1524.6C1336.25 1509.25 1237.67 1476.96 1120.73 1372.69C1029.74 1291.57 968.307 1191.38 950.45 1160.74C932.593 1130.13 948.536 1113.54 963.89 1098.29C977.633 1084.57 994.502 1062.56 1009.81 1044.68C1025.08 1026.81 1030.18 1014.05 1040.39 993.646C1050.59 973.206 1045.49 955.334 1037.84 940.029C1030.18 924.723 970.699 773.357 943.483 712.836V712.836Z" fill="white"/>
<path d="M2116.17 359.365C1884.88 127.911 1577.32 0.377562 1249.65 0.232666C574.42 0.232666 24.9211 549.556 24.6496 1224.75C24.57 1440.59 80.9632 1651.26 188.152 1836.98L14.3661 2471.53L663.751 2301.25C842.672 2398.83 1044.12 2450.25 1249.12 2450.33H1249.64H1249.65C1924.77 2450.33 2474.35 1900.91 2474.63 1225.74C2474.75 898.515 2347.44 590.835 2116.17 359.365V359.365ZM1249.65 2243.51H1249.25C1066.52 2243.41 887.33 2194.35 731.034 2101.61L693.837 2079.56L308.479 2180.59L411.363 1805.01L387.129 1766.51C285.201 1604.44 231.392 1417.15 231.471 1224.83C231.694 663.634 688.416 207.071 1250.03 207.071C1522 207.183 1777.61 313.192 1969.86 505.569C2162.09 697.946 2267.88 953.681 2267.8 1225.67C2267.56 1786.88 1810.82 2243.51 1249.65 2243.51Z" fill="white"/>
</g>
<circle cx="2115" cy="2113" r="528" fill="#86F98A"/>
<path d="M1922.84 2357.62L2464.21 2125.5L1922.84 1893.38L1922.58 2073.92L2309.46 2125.5L1922.58 2177.08L1922.84 2357.62Z" fill="white"/>
<defs>
<linearGradient id="paint0_linear_1_18" x1="1244.49" y1="2428.77" x2="1244.49" y2="43.0279" gradientUnits="userSpaceOnUse">
<stop stop-color="#20B038"/>
<stop offset="1" stop-color="#60D66A"/>
</linearGradient>
<clipPath id="clip0_1_18">
<rect width="2489" height="2500" fill="white"/>
</clipPath>
</defs>
</svg>
